<?xml version="1.0" encoding="UTF-8"?>
<svg id="Layer_1" xmlns="http://www.w3.org/2000/svg" viewBox="0 0 1959.17 2867.74">
  <defs>
    <style>
      .cls-1 {
        fill: #4eff2a;
      }

      .cls-2 {
        fill: #d9b260;
      }

      .cls-3 {
        fill: lime;
      }
    </style>
  </defs>
  <path class="cls-2" d="M0,1408.58c.48-.04.77.18.86.65.03,16.8.05,33.61.08,50.42-.17.44-.48.7-.94.79v-51.85h0Z"/>
  <path class="cls-1" d="M600.51,1636.55c-38.63,26.49-77.82,44.87-119.77,57.29-18.59,5.5-37.51,9.26-57.01,9.15-38.87-.21-63.84-17.7-76.65-54.48-3.88-11.15-6.78-22.77-8.74-34.4-6.68-39.81-20.85-78.12-23.84-118.63-3.19-42.96-6.77-85.92,9.31-127.62,5.22-13.53,3.61-24.89-9.76-35.52-24.82-19.74-23.98-20.76-48.3-.21-19.8,16.74-40.17,32.83-59.23,50.35-9.54,8.78-14.81,3.31-21.79-2.35-9.01-7.28-1-11.7,2.69-15.93,19.64-22.5,39.85-44.53,59.46-67.05,3.12-3.58,10.11-7.34,6.68-12.82-4.33-6.89-10.17-13.64-17.89-16.97-4.61-1.98-7.51,3.54-10.47,6.5-36.43,36.3-72.68,72.78-109.3,108.89-3.35,3.31-7.05,13.73-13.71,4.52-4.68-6.46-16.38-11.52-5.31-23.8,40.25-44.71,80.88-89.14,117.26-137.2,7.74-10.24,17.82-18.11,30.41-22.24,8.67-2.83,14.23-.34,17.79,8.19,9.15,21.85,24.44,25.12,41.43,8.58,16.75-16.31,29.18-36.25,44.12-54.09,6.75-8.07,13.1-16.61,23.52-20.56,11.71-4.45,20.69-1.32,26.53,9.79,5.04,9.56,5.96,20.14,6.61,30.66.68,11.09,2.83,21.85,7.64,31.83,7.94,16.49,18.21,19.41,34.15,10.75,19.67-10.7,39.54-20.92,60.76-28.5,46.63-16.66,87.33-9.7,126.43,22.47,45.9,37.76,76.98,83.8,92.46,140.61,2.87,10.54,5.36,8.51,12.57,3.95,15.92-10.06,18.62-22.77,16.22-41.11-6.25-47.84-10.47-95.98-14.19-144.1-6.02-78.02-7.09-156.19-5.93-234.44,1.5-101.09,24.14-197.37,62.6-290.47,86.79-210.05,199.6-404.72,342.74-581.49,14.37-17.73,30.41-34.09,45.15-51.54,14.55-17.2,34.43-22.27,55.12-24.37,16.95-1.73,27.58,8.28,28.77,27.2,2.4,38.42,14.51,73.96,30.2,108.5,7.64,16.81,16.09,33.35,30.68,45.56,18.12,15.19,28.74,14.44,42.76-4.74,15.95-21.81,34.72-40.86,54.57-58.88,22.52-20.44,46.43-39.15,75.72-49.25,33.9-11.7,56.87-2.17,72.62,29.96,12.41,25.32,16.06,52.81,18.5,80.4,3.1,34.97,5.54,70,8.08,105.03,2.01,27.7,15.6,50.9,28.4,74.46,12.18,22.36,25.3,44.22,34.97,67.92,8.12,19.9,8.47,39.12-1.76,58.34-2.88,5.41-4.9,11.27-7.48,16.86-12.66,27.35-9.06,52.54,8.51,76.84,26.58,36.77,45.95,76.79,52.17,122.38,1.37,10.09,2.1,20.3.71,30.23-8.44,60.94,4.79,118.7,30.8,172.64,18.14,37.6,23.06,74.95,17.22,114.96-8.63,59.14-25.46,115.26-66.57,160.64-28.31,31.25-58.34,60.92-87.88,91.05-65.84,67.16-131.84,134.15-197.75,201.24-2.35,2.4-4.33,5.18-8.83,10.61,17.22-3.76,30.98-7.01,44.87-9.77,37.14-7.39,74.38-11.7,112.47-7.58,35.04,3.79,57.81,23.66,73.81,52.86,8.01,14.6,14.85,29.95,20.85,45.47,9.74,25.16,27.04,41.09,52.63,49.57,36.53,12.11,70.61,28.91,99.56,55.14,34.45,31.21,51.65,70.24,54.12,116.13,1.69,31.12-2.33,62.19-.32,93.4,1.62,25.1,8.37,43.89,33.7,55.51,28.82,13.23,43.19,40.86,53.23,69.35,18.21,51.67,11.04,99.4-26.53,141.1-16.72,18.57-18.37,34.36-6.73,56.67,4.72,9.04,10.24,17.7,18.09,24.12,21.61,17.71,23.27,41.36,19.55,66.02-4.22,27.93-19.32,50.6-38.31,70.77-11.8,12.53-22.86,25.51-30.34,41.2-8.9,18.69-10.4,38.15.98,55.51,17.57,26.83,15.15,55.16,9.67,83.89-10.01,52.36-42.09,87.95-88.59,111.17-58.22,29.06-118.77,40.2-182.26,18.89-27.61-9.28-50.9-25.53-70.33-47.29-8.71-9.76-14.12-20.74-16.08-33.93-1.66-11.22-4.63-22.38-8.3-33.15-4.79-14.08-12.84-26.74-26.96-32.71-53.11-22.4-78.68-66.32-93.81-118.45-5.27-18.16-9.31-36.62-20.03-52.66-12.5-18.71-27.42-34.22-50.08-40.34-8.42-2.28-11.95-1.9-9.72,8.85,9.65,46.86,17.95,93.93,22.84,141.61,2.74,26.69,4.04,53.36,4.58,80.17.85,43.62,5.2,86.69,22.75,127.53,11.06,25.71,29.18,45.65,48.53,65,24.25,24.27,47.79,49.17,66.19,78.37,19.07,30.23,12.46,45.79-22.79,52.15-26.01,4.7-45.84-7.18-59.52-27.85-22.77-34.43-43.9-69.93-65.75-104.97-8.15-13.07-17.16-25.39-28.15-36.36-20.47-20.44-27.12-47-29.55-74.4-7.48-84-20.28-167.25-33.22-250.5-9.1-58.54-17.04-117.4-33.08-174.51-13.64-48.59-30.16-96.37-45.2-144.59-10.66-34.15-17.2-68.81-15.58-104.95,1.18-26.33.16-52.74.27-79.12.04-7.85-.75-15.6-9.04-18.73-9.22-3.47-14.83,2.94-19.58,9.56-19,26.46-21.33,56.81-20.81,87.99.89,54.66,21.1,104.6,37.1,155.62,25.9,82.56,49.73,165.7,65.86,250.8,10.15,53.52,14.33,107.86,19.98,161.98,4.4,42.34,9.08,84.66,13.64,126.98,2.71,25.19,15.2,45.63,31.87,63.7,10.7,11.61,22.25,22.49,33.77,33.31,13.23,12.44,25.32,25.76,32.9,42.43,3.63,7.98,6.91,16.75,0,24.82-7.23,8.42-16.84,6.61-25.73,4.24-13.71-3.65-25.89-10.9-37.76-18.45-16.68-10.61-34.01-20.46-49.49-32.62-33.86-26.56-51.49-62.95-57.01-104.92-18.52-140.53-35.7-281.28-66.34-419.83-16.84-76.17-46.38-148.36-77.84-219.47-10.91-24.68-11.89-47.61-3.76-72.53,14.05-43,27.2-86.28,40.7-129.45,1.71-5.45,3.24-10.95,4.84-16.42,3.54-12.04,2.1-23.23-8.67-30.62-11.18-7.67-23.34-6.75-34.68.52-8.58,5.48-15.63,12.69-21.81,20.85-24.82,32.74-44.55,68.38-61.6,105.67-7.62,16.66-5.79,33.15-2.19,50.22,17.82,84.6,35.38,169.26,52.9,253.94,4.81,23.23,8.15,46.72,9.24,70.41.64,14.14-2.83,17.04-16.95,16.79-4.4-.07-8.8-.25-13.17-.53-25.16-1.6-37.17-12.8-40.88-37.94-14.51-98.62-33.83-196.32-55.03-293.67-3.92-17.96-10.22-35.41-14.47-53.32-4.29-18.04.39-33.7,14.53-46.5,15.74-14.26,27.95-31.49,39.24-49.39,3.7-5.86,9.19-11.55.57-17.96-7.96-5.93-15.7-10.09-24.37-1.14-14.65,15.17-29.45,30.21-44.14,45.33-1.53,1.57-2.58,3.67-4.26,5-26.85,21.44-27.19,49.05-18.61,78.84,24.96,86.53,44.9,174.25,62.56,262.52,5.16,25.82,9.58,51.77,14.35,77.66,1.96,10.63-1.05,16.43-13.21,17.23-35.11,2.33-51.01-9.15-59.55-46.9-9.51-41.93-17.57-84.19-26.67-126.23-9.85-45.47-20.47-90.78-32.92-135.63-4.26-15.31-10.43-29.79-17.93-43.8-5.38-10.06-10.47-20.33-14.76-30.89-6.14-15.13-4.77-28.58,8.6-40.41,14.12-12.5,26.47-27.01,40.43-39.72,7.9-7.21,4.84-14.05,2.07-21.4-2.69-7.18-7.18-11.96-15.81-10.9-9.74,1.19-19.57-.11-28.7-2.76-11.41-3.31-18.55.85-26.67,8.26-26.21,23.88-47.25,51.9-67.6,80.58-10.7,15.06-12.55,32.24-13.14,50.12-3.08,92.19-9.03,184.18-23.73,275.3-4.08,25.21-7.71,50.26-8.14,75.77-.07,4.38-.3,8.8-.98,13.12-2.46,15.76-3.86,16.58-18.46,11.45-2.9-1.01-5.75-2.19-8.6-3.33-38.67-15.52-49.67-34.66-44.44-75.74,8.96-70.06,20.49-139.8,18.69-210.96-.96-38.1,1.89-76.36,4.27-114.48,1.48-23.45,11.13-44.22,28.18-60.71,22.17-21.44,41.38-45.45,61.49-68.69,4.5-5.2,7.3-11.2,1.12-17.55-6.61-6.78-13.5-5.57-20.05-.45-18.77,14.71-33.51,33.51-49.99,50.49-14.37,14.8-26.74,31.44-38.24,48.64-17.15,25.6-28.24,53.02-30.11,84.46-3.79,63.97-8.92,127.87-13.69,191.78-2.24,30.14-6.05,60.11-.45,90.46,2.53,13.69-9.95,23.36-24.66,21.74-35.75-3.92-51.67-23.68-47.36-60.16,4.06-34.41,8.69-68.78,13.66-103.08,3.7-25.69,4.49-51.6,6.07-77.43,2.6-42.5,4.08-85.08,5.32-127.65.34-11.8,5.5-21.08,11.39-30.3,18.16-28.47,43.03-50.92,67.19-73.96,20.97-20.01,42.43-39.52,63.65-59.27,3.2-2.99,6.37-5.82,6.3-10.97-.21-13.98-.07-27.97-.07-44.63v-.02ZM1037.85,674.39c5.95.07,6.21-5.45,8.33-8.85,43.19-69.36,86.17-138.85,129.38-208.22,37.85-60.78,77.68-120.32,113.86-182.17,13.05-22.31,11.68-41.77-5.64-61.28-25.41-28.63-46.33-59.87-49.48-99.67-.8-10.06-.66-20.19-1.28-30.27-.68-10.72-4.97-13.21-14.6-8.51-8.39,4.09-15.24,10.33-21.99,16.63-39.79,37.16-72,80.53-101.55,125.89-88.31,135.54-162.58,278.65-227.71,426.58-21.06,47.84-41.27,96.11-55.49,146.53-16.4,58.08-16.88,118.02-18.25,177.68-1.16,50.05,1.94,100.08,4.09,150.09,2.4,55.73,7.35,111.26,11.36,166.86,1.3,18.02,10.82,29.84,28.58,35.34,15.77,4.9,32.21,3.69,48.18,6.43,5.8,1,7.34-3.49,7.44-8.42.18-8.8.02-17.59.59-26.37,5.96-92.88,15.69-185.36,30.64-277.28,18.89-116.17,50.03-228.1,110.56-330.26,1.92-3.26,4.9-6.46,3.19-10.9l-.16.14-.04.02ZM955.63,1273.31v48.78c-.04,37.83,6.93,74.3,22.15,108.94,21.15,48.19,54.85,80.85,109.42,87.92,29.47,3.83,58.68,3.61,87.81-1.85,66.5-12.46,125.2-42.73,180.34-80.51,75.43-51.67,140.63-115.1,204.19-180.25,43.33-44.42,83.86-91.23,114.23-145.89,25.67-46.2,36.6-95.95,31-148.31-3.9-36.5-17.36-70.91-33.28-103.71-18.32-37.76-27.6-76.7-23.61-118.48,1.89-19.73,1.78-39.47,2.4-59.22.45-13.67-2.49-26.31-9.47-37.8-12.11-19.87-24.48-39.6-37.32-59.02-17.41-26.33-21.9-52.41-4.56-81.26,12.46-20.74,13.6-43.48,6.53-67.39-8.94-30.21-29.18-50.58-53.63-67.8-12.36-8.71-19.17-19.78-21.63-34.52-6.32-37.67-3.42-75.33-.11-112.91,2.24-25.33,6.71-50.46,8.85-75.79,1.74-20.76-8.99-27.58-27.95-18.73-10.36,4.84-19.8,11.31-28.81,18.41-33.77,26.56-61.39,59.02-87.99,92.37-99.56,124.84-189.4,256.46-274.57,391.45-52.68,83.5-94.16,171.52-118.93,267.31-32.06,124.06-44.15,250.45-45.12,378.19l.04.05ZM898.62,1417.9c0-9.28-.32-21.15.11-33.01.28-7.66-2.67-9.97-10.08-9.36-31.74,2.6-62.62,8.46-91.3,23.06-9.9,5.04-19.01,11.47-25.53,20.44-40.17,55.33-75.15,113.54-96.66,178.96-3.31,10.06-5.22,20.56-4.04,31.17,1.67,14.99,6.46,29.31,21.54,35.13,14.44,5.59,20.72-8.03,28.49-16.31,15.65-16.72,31.67-32.97,51.15-45.24,6.62-4.17,13.99-8.51,21.93-2.55,7.53,5.66,8.69,13.85,7.76,22.5-1.48,13.85-6.39,26.37-15.04,37.39-4.61,5.89-8.69,12.05-10.93,19.39-5.02,16.42,1.28,28.72,17.61,33.81,11.13,3.47,22.7,4.11,33.95,2.4,67.08-10.26,129.17-32.6,181.78-77.14,6.05-5.13,12.3-9.92,20.03-12.36,13.99-4.42,23.59,1.9,24.55,16.42.45,6.66-.04,13.26-3.45,19.19-15.9,27.49-.27,56.97,29.25,66.8,19,6.32,38.62,7.53,58.54,4.79,51.79-7.14,95.62-31.1,134.99-64.13,31.55-26.46,55.73-56.69,46.74-101.96-1.1-5.59-1.62-11.29-2.42-16.93-2.44-17.18-2.28-16.84-17.55-10.08-98.15,43.49-199.12,50.51-302.11,20.85-37.19-10.7-69.17-30.16-88.18-66.18-12.46-23.59-13.17-48.8-11.15-77.07l.04.02ZM1290.91,1998.2c.2,37.42,16.72,64.77,50.46,81.26,31.87,15.58,65.86,20.88,99.97,12.28,96.48-24.28,185.25-65.54,263.98-126.99,67.03-52.34,81.43-156.44,46.82-221.39-19.09-35.82-47.71-42.37-80.58-18.73-18.18,13.07-32.12,30-43.46,48.94-12.23,20.4-28.81,36.48-47.39,50.65-56.58,43.14-118.97,76.31-183.49,105.63-21.13,9.6-42.2,21.6-65.71,22.33-28.66.89-42.02,21.76-40.59,46.02ZM1508.33,2300.11c8.76-.48,17.64-.25,26.28-1.53,119.98-17.84,220.25-73.99,304.61-159.47,27.26-27.63,42.16-61.73,34.43-101.86-5.25-27.35-18.85-49.35-46.66-59.04-27.24-9.49-49.96,1.62-67.94,20.37-37.33,38.92-81.31,68.17-128.47,93.04-56.55,29.82-115.16,54.25-179.57,61-12.91,1.35-24.77,3.58-35.45,11.82-21.58,16.65-28.63,40.11-32.26,65.36-1.01,7,2.01,13.01,7.14,17.66,33.52,30.39,69.26,55.9,117.88,52.66l.02-.02ZM1259.22,1817.75c0,9.65.25,19.32-.05,28.97-.87,28.08,10.91,40.08,38.63,37.74,27.35-2.3,53.3-9.74,77.89-22.31,54.27-27.74,103.9-62.26,149.32-102.68,29.27-26.05,56.58-54.02,73.35-90.37,23.89-51.79,11.31-91.96-37.69-120.76-11.82-6.94-24.41-12.02-37.23-16.54-16.54-5.84-32.56-4.75-48.37,3.42-21.24,10.99-37.9,27.45-51.65,46.15-40.13,54.53-82.11,107.61-131,154.41-24.36,23.31-42.57,46.29-33.24,81.97h.04ZM686.06,1461.32c-3.51-6.57-1.73-10.9-1.01-14.97,7.8-45.2-.53-87.24-23.59-126.75-40.65-69.63-110.24-91.39-183.13-56.92-93.72,44.31-141.52,163.78-107.23,261.65,13.96,39.81,37.92,63.83,79.35,70.5,1.73.28,3.4.84,5.11,1.25,61.26,14.46,117.74,6.96,166.48-36.23,16.06-14.23,27.6-32.05,40.97-48.76-18.52,38.47-37.01,76.95-56.92,118.32,89.5-61.87,136.66-178.09,120.35-251.6-13.76,28.47-26.72,55.28-40.38,83.52h0ZM1645.32,2455.36c56.08-3.45,114.19-29.77,164.24-74.31,25.23-22.45,35.3-51.58,32.76-85.35-1.87-24.71-17.61-34.58-39.76-23.66-6.21,3.06-12.61,6.91-17.18,11.95-13.5,14.9-30.66,23.32-49.05,29.7-69.45,24.09-140.56,41.07-213.68,49.23-8.49.94-15.28,3.76-17.84,12.85-4.54,16.06.05,30.36,13.74,40.45,34.24,25.25,72.48,38.83,126.78,39.12l-.02.04ZM1222.44,1844.55h.32c0-11.41.07-22.84-.02-34.25-.07-7.98-4.56-9.4-10.18-5.25-7.32,5.39-14.74,10.88-14.71,21.88.04,9.61-.96,19.3-2.37,28.82-10.77,72.64-6.53,144.21,13.82,214.89,27.7,96.27,48.16,194.17,63.29,293.11,13.6,88.86,25.01,178.06,37.46,267.09,2.63,18.87,8.96,35.93,26.33,46.38,4.38,2.63,9.76,5.64,14.81,2.24,5.68-3.83,3.12-9.58,1.21-14.35-13.78-34.5-19.57-70.22-23.5-107.32-10.93-102.94-29.87-204.82-48.68-306.58-11.79-63.81-24.94-127.46-47.52-188.67-11.66-31.64-16.25-64.56-14.88-98.3,1.64-39.9,3.1-79.8,4.63-119.7h-.02ZM1051.36,1953.99c1.19,28.41,9.61,53.52,19.82,77.77,39.58,94.02,62.83,192.51,83.06,292.05,21.97,108.05,31.28,217.96,50.12,326.45,3.38,19.44,7.01,38.85,10.52,58.27,1.1,6.12,3.99,10.88,10.56,11.91,6.12.96,11.22-1.8,15.33-6.05,5.15-5.31.62-9.44-1.89-13.99-2.1-3.81-3.77-7.96-4.93-12.16-9.61-34.79-16.5-70.4-18.46-106.18-4.17-76.56-16.63-151.78-32.6-226.45-24.32-113.75-48.84-227.5-88.81-337.13-5.27-14.44-10.82-28.75-14.15-43.83-1.16-5.22-1.55-10.13.09-15.47,15.52-50.3,25.42-102.28,45.83-151.1,1.83-4.38,2.19-8.51-2.26-11.75-7.96-5.8-23.79-1.23-27.17,8.23-10.2,28.52-20.63,56.99-30.11,85.76-6.98,21.24-13.5,42.71-14.94,63.67v.02ZM1703.29,2609.92c13.55-.85,28.52-3.42,42.23-11.32,30.8-17.75,48.18-46.49,63.47-77,5.13-10.24,7.03-20.42-2.17-29-9.53-8.88-20.87-8.81-31.73-2.62-8.4,4.79-16.74,9.49-25.78,13.03-30.71,12.07-62.67,19.98-94.57,27.9-17.61,4.38-26.79,15.47-30.62,32.26-2.01,8.85-.27,15.58,7.76,21.65,20.71,15.67,43.83,23.59,71.41,25.09v.02ZM565.51,2199.06c.64,10.18.59,20.28,3.13,30.2,1.41,5.47,3.9,10.56,9.92,10.84,6.53.3,6.93-6.21,7.73-10.5,3.17-16.81,6.04-33.69,8.4-50.62,6.3-45.22,9.9-90.76,12.27-136.31,1.74-33.67,4.58-67.37,1.76-101.29-3.42-41.02,3.28-78.87,34.33-110.49,22.68-23.09,42.71-48.98,61.46-75.56,3.28-4.65,9.99-10.52,3.72-15.93-6.02-5.2-14.49-3.15-20.76,1.5-4.49,3.33-7.94,8.17-11.43,12.69-18.04,23.31-37.51,45.36-57.86,66.6-16.97,17.71-25.23,38.31-26.17,62.78-2.28,58.79-8.94,117.22-14.39,175.76-4.34,46.75-8.08,93.54-12.09,140.33h-.02ZM970.76,1784.32c-7.34-.71-11.32,3.6-15.19,7.8-20.05,21.83-34.56,47.43-49.94,72.52-8.15,13.3-9.4,26.58-6.66,41.36,16.81,90.53,33.35,181.12,50.03,271.67,2.71,14.65,5.31,29.34,8.63,43.87,1.58,6.96,2.49,17.29,11.84,16.43,9.67-.89,7.85-11.02,7.89-18.18.04-5.66-.5-11.41-1.48-17-15.97-90.23-31.5-180.55-48.46-270.6-5.54-29.38-.07-55.48,13.55-81.11,9.63-18.12,23.18-32.94,37.12-47.59,3.49-3.67,8.56-7.9,5.89-13.53-2.47-5.18-8.85-4.86-13.25-5.64l.02.02ZM840.05,1798.61c-3.2,1.55-8.55,3.04-12.48,6.25-18.61,15.12-33.83,33.19-44.39,54.85-2.72,5.57-3.77,11.63-2.6,17.96,2.85,15.52,4.75,31.26,8.44,46.57,23.31,96.76,50.67,192.62,66.03,291.18,1.66,10.59,8.58,16.93,17.82,14.96,10.72-2.3,6.8-12.87,5.22-19.98-20.76-93.35-40.68-186.91-63.38-279.77-11.52-47.07-8.14-87.76,31.01-120.55.34-.28.62-.61.93-.94,1.76-1.92,4.18-3.81,2.9-6.75-1.37-3.17-4.38-4.04-9.51-3.83v.04ZM447.01,2155.55c-.91,5.54.16,14.99,6.69,23.06,4.18,5.16,7.96,5.57,9.93-1.8.78-2.94,1.37-6.02,1.44-9.04,2.21-100.18,22.74-198.71,27.35-298.7.8-17.43,7.21-32.95,19.53-46.34,18.77-20.4,37.9-40.27,59.91-57.22,8.78-6.77,16.7-14.28,21.04-24.82,1.69-4.11,3.74-8.55-.39-12.12-3.9-3.36-7.35-.09-10.65,1.96-2.24,1.39-4.49,2.8-6.5,4.47-35.14,29.41-66.94,62.06-95,98.33-5.77,7.46-9.2,15.83-9.45,25.48-.43,16.66-1.67,33.31-1.69,49.98-.05,34.31-3.4,68.28-7.32,102.32-5.36,46.61-11.77,93.15-14.87,144.42l-.04.04ZM361.6,1291.08c4.27,0,9.08-.02,13.89,0,4.31.02,6.18-2.05,6.32-6.39.39-11.32,1.42-22.65,1.48-33.97.05-11.91-5.88-17.5-17.88-17.5-14.62,0-27.2,6-38.49,14.6-6.14,4.68-8.23,11.47-4.13,18.68,7.9,13.92,15.31,28.11,38.83,24.59h-.02Z"/>
  <path class="cls-3" d="M1580.07,947.36c17.07-16.47,32.65-30.6,47.14-45.79,8.26-8.65,13.69-8.17,22.45-.27,9.45,8.55,2.39,12.66-2.28,17.79-41.16,45.08-82.86,89.7-123.58,135.17-48.66,54.32-91.55,113.61-140.51,167.55-41.93,46.2-66.73,101.71-94.93,155.68-5.7,10.9-11.31,21.85-16.81,32.83-1.55,3.08-3.61,7.9,2.08,7.83,12.27-.14,24.68,3.65,36.3-6.11,27.24-22.86,55.48-44.55,83.55-66.37,12.75-9.9,22.72-22.34,30.87-35.71,11.77-19.3,30.73-26.01,50.76-32.83-5.88,13.46-12.64,26.31-22.9,36.93-29.02,30.02-58.08,59.98-87.4,89.68-22.9,23.2-53.55,34.84-80.01,52.75-2.97,2.01-6.12,1.83-7.89-1.53-4.84-9.22-10.11-5.27-15.77-1-6.32,4.75-12.91,9.15-19.3,13.78-6.14,4.45-8.21,2.51-8.26-4.59-.07-9.74.77-19.03,4.36-28.36,9.31-24.16,17.41-48.8,26.88-72.92,3.45-8.78,2.05-14.72-4.54-20.96-5.71-5.41-10.42-11.88-15.63-17.82-9.65-10.99-10.13-10.97-16.5,1.71-14.42,28.65-28.63,57.4-43.28,85.94-2.23,4.34-3.44,13.82-11.18,8.78-7.96-5.2-23.43-2.88-21.29-19.99,2.17-17.39,2.85-34.98,4.04-52.5.16-2.42,1.25-5.61-1.66-7.09-2.88-1.46-4.7,1.44-6.8,2.78-2.23,1.41-4.54,2.8-6.41,4.61-9.86,9.47-18.77,13.39-26.83-2.28-3.35-6.5-6.41-3.42-8.71,1.78-6.16,13.9-12.61,27.69-20.03,43.87-8.83-17.2-16.47-32.12-24.12-47.02-3.58,29.89-2.42,59.5-5.86,88.88-5.34,1.46-8.24-2.76-11.71-4.91-17.54-10.84-34.36-22.95-53.36-31.23-8.08-3.53-13.78-8.01-11.16-17.71,2.39-8.92,10.15-5.07,15.45-5.31,28.82-1.3,29.27-1.01,33.76-28.09,8.26-49.71,15.93-99.51,24.36-152.47-25.98,11.41-50.03,21.99-74.99,32.95-1.89-12.21.14-21.12,9.74-28.54,18.41-14.23,36.11-29.38,54.19-44.03,16.4-13.26,22.65-45.68,12.27-63.79-11.15-19.42-21.52-39.35-33.51-58.24-6.82-10.75-.05-17.41,4.66-24.68,2.97-4.56,6.21.32,8.62,2.15,11.52,8.8,22.93,17.73,34.17,26.87,5.82,4.72,9.53,6.94,12.41-3.1,15.29-53.16,31.05-106.18,46.88-159.18,2.03-6.77,1.25-9.74-6.59-9.28-20.15,1.18-40.43-.68-60.52,2.26-9.7,1.42-15.67-.45-16.9-11.93-.87-8.15,1.73-10.66,9.17-12.21,29.63-6.2,59.07-13.3,88.73-19.28,7.37-1.48,11.34-4.17,14.07-11.31,12.21-31.99,24.94-63.81,37.78-95.57,2.49-6.18,2.35-11.36-.52-17.47-12.07-25.64-20.06-53.82-45.95-70.45-1.67-1.09-4.02-4.11-3.56-5.07,3.86-8.33,12.62-11.64,18.89-17.61,3.74-3.56,7.42-3.2,11.79-.3,10.04,6.69,17.89,14.76,23.41,25.89,4.66,9.4,7.23,25.1,17.02,25.39,7.53.21,12.41-15.35,18.34-23.96,24.6-35.86,48.87-71.96,73.58-107.75,5.61-8.12,6.04-11.2-5.48-11.68-22.34-.96-44.62-3.38-66.94-5.02-10.31-.75-12.18-3.24-6.43-13.3,8.94-15.63,19.6-23.39,38.6-21.85,17.8,1.46,35.91-1.23,53.91-1.39,6.89-.07,11.2-2.24,15.17-7.96,16.02-23.09,32.44-45.92,49-68.65,3.7-5.07,4.13-10.38,3.83-16.18-1.6-30.68-3.2-61.35-4.65-92.05-.48-10.13,15.22-31.33,24.98-33.76,6.53-1.62,5.54,4.2,6.07,7.46,2.85,17.31,5.31,34.68,7.98,52.02.25,1.64.91,3.2,1.89,6.62,7.09-5.2,13.34-9.76,19.55-14.37,5.32-3.93,8.99-3.26,9.92,3.77,1.1,8.31,1.66,16.36-3.9,23.95-7.01,9.6-12.34,20.01-13.94,32.24-1.14,8.63.8,11.84,10.11,11.38,25.87-1.3,51.77-1.69,77.66-2.56,15.31-.52,28.43,2.76,37.28,17.09,3.45,5.59,4.45,8.63-2.8,9.72-14.12,2.12-17.59,10.36-14.56,23.22.78,3.35-.12,7.05.34,10.52,3.97,30.68-.77,59.3-19.32,84.84-4.66,6.43-6.37,13.89-3.88,21.29,4.9,14.53,1.3,27.72-5.09,40.57-4.01,8.05-4.11,15.6-.64,23.98,5.88,14.19,11.11,28.66,16.15,43.19,2.24,6.44,5.7,10.09,12.71,11.43,9.45,1.82,18.89,4.29,27.93,7.6,14.17,5.16,28.06,5.36,42.52,1.37,5.18-1.44,13.19-6.8,16.06-.05,3.47,8.17,7.78,17.32,1.6,27.45-14.94,24.44-31.74,47.38-50.31,69.15-18.53,21.72-36.5,43.9-54.89,65.73-9.45,11.22-8.6,25.46-11.59,38.51-1.32,5.73,4.4,5.34,8.19,5.71,10.47,1.03,20.96,2.46,31.46,2.78,8.26.25,12.39,2.53,13.74,11.71,2.72,18.57,7.1,36.87,11.39,58.24l-.11.04ZM1458.86,839.13c-1.9-6-4.33-11.31-5.25-16.84-5.36-32.15-23.66-48.98-56.56-51.45-8.21-.62-12.57-.21-17.04,6.94-18.6,29.75-36.3,60.27-57.31,88.25-15.03,20.03-11.16,34.91-1.66,56.08,13,28.95,31.66,43.51,62.24,46.65,9.12.93,14.19.78,18.5-8.49,16.43-35.41,33.77-70.4,50.67-105.59,2.44-5.09,4.34-10.45,6.43-15.54h-.02ZM1466.48,402.65c-13.6,0-27.22.34-40.81-.14-7.35-.25-12.14,2.07-16.31,8.37-9.44,14.26-19.78,27.92-29.59,41.93-22.74,32.49-20.23,30.89,1.57,64,16.88,25.62,34.79,26.4,62.14,22.59,29.73-4.13,48.91-17.27,63.56-41.16,3.6-5.86,8.69-10.5,8.76-18.52.18-21.47.89-42.96,2.24-64.4.61-9.61-1.73-13.55-12.05-12.89-13.1.85-26.31.21-39.49.21h-.02ZM1223.77,883.39c10.86-1.28,18.73-3.28,26.49-2.9,11.77.57,17.89-4.36,23.16-14.76,19.23-37.9,39.52-75.29,59.45-112.84,1.64-3.1,4.43-6.18,3.28-9.69-4.68-14.19-11.88-27.28-18.91-40.38-2.01-3.76-6.23-2.55-9.6-2.37-18.36,1.05-36.71,2.3-55.07,3.36-6.82.39-10.84,3.26-13.3,10.15-11.71,33.03-22.42,66.55-36.55,98.54-9.53,21.56-8.35,39.42,4.01,58.72,5.23,8.19,9.08,14.96,17.02,12.14l.02.02ZM1578.61,712.58c.3-5.18-3.81-5.79-6.75-7.21-15.38-7.48-30.73-15.03-46.33-22.06-6.77-3.04-11.36-7.3-14.49-14.17-8.72-19.16-18.2-37.98-27.17-57.03-3.58-7.58-6.5-8.3-11.2-.64-23.18,37.74-46.52,75.42-70.11,112.91-5,7.96-1.99,9.74,5.64,10.2,13.99.84,27.99,2.83,41.96,2.72,10.43-.09,14.3,4.13,16.58,13.76,4.91,20.88,11.11,41.48,16.72,62.21.8,2.97.87,7.1,3.77,7.98,4.06,1.21,5.59-3.28,7.73-5.88,26.19-31.83,52.38-63.67,78.52-95.55,1.94-2.35,3.53-5,5.11-7.26l.02.02ZM1254.4,666.73c27.52-4.04,51.83-6.93,75.83-11.47,9.44-1.78,12.44,1.69,15.13,9.24,4.86,13.64,10.42,27.04,15.56,40.57,2.55,6.68,5.09,7.3,9.4,1.05,27.67-40.13,55.49-80.14,83.34-120.14,4.42-6.34,3.67-9.1-4.74-8.99-21.08.27-42.18-.28-63.24.28-7.99.21-13.09-2.35-17.27-8.99-6.8-10.75-14.67-20.85-21.29-31.71-5.04-8.24-7.98-6.73-12.37.46-15.33,25.1-31.1,49.96-46.63,74.94-10.79,17.36-21.45,34.81-33.72,54.71v.04ZM1359.6,1014.35c-.27-5.89-5.27-7.28-8.78-8.99-26.76-12.98-47.39-32.44-64-56.95-9.56-14.1-12.8-13.34-20.58,1.9-1,1.96-1.8,4.01-2.6,6.05-13.41,34.81-26.62,69.7-40.33,104.4-3.53,8.94-2.55,13.51,7.98,11.59,23.11-4.22,39.63,4.86,51.6,24.27,2.05,3.31,5.55,5.68,7.82,8.88,5.77,8.17,9.4,5.98,13.9-1.55,16.97-28.22,34.41-56.15,51.67-84.19,1.14-1.85,2.28-3.72,3.33-5.43v.02ZM1552.06,952.22c-.72-27.6-13.63-45.2-38.71-52.82-5.04-1.53-10.24-2.62-15.12-4.52-4.63-1.8-7.48-.28-10.01,3.42-21.22,31.19-43.83,61.48-62.44,94.38-6.48,11.45-4.88,14.99,7.83,19.01,22.93,7.23,46.08,7.1,70.02,4.72,16.22-1.62,25.5-8.01,31.89-21.77,6.66-14.33,21.01-25.73,16.52-42.41h0ZM1188.86,1291.03c1.19.27,2.39.53,3.58.82,15.88-26.65,29.71-54.8,48.18-79.53,20.31-27.2,23.45-52.84,8.81-83.27-6.02-12.52-9.74-20.92-25.99-20.92-19.28,0-38.94,15.22-40.24,35-1.34,20.1-2.47,40.25-4.93,60.23-3.74,30.34,4.4,58.82,10.61,87.67h-.02ZM1160.39,906.82c-13.23,48.23-25.51,92.92-37.66,137.64-.64,2.39-1.1,6.07.2,7.53,6.5,7.39,12.52,20.28,21.85,18.55,13.26-2.44,30.37,1.42,38.65-16.29,15.4-32.97,32.12-65.32,48.11-98.03,1.76-3.61,5.55-7.01,2.65-13.05-9.95,4.74-19.85,9.17-29.48,14.1-7.09,3.63-11.73,2.96-16.02-4.61-8.19-14.42-17.36-28.27-28.29-45.83v-.02ZM1379.65,1178.22c30.05-34.02,58.81-66.6,87.59-99.13,3.15-3.58,5.29-7.09,1.71-11.61-7.46-9.42-12.89-20.76-28.38-19.98-10.36.52-20.94-1.78-31.32-3.49-8.35-1.39-13,3.01-17.61,8.76-17.34,21.56-34.9,42.94-52.27,64.47-5.89,7.3-13.44,13.51-17.13,24.85,14.8-2.6,28.2-4.43,41.32-7.46,7.12-1.64,8.76.21,10.08,7.07,2.23,11.52.55,23.64,5.96,36.52h.04ZM1162.05,1112.51c-1.23-10.56-15.56-15.86-24.57-25.01-6.23-6.34-11.66,1.9-17.34,4.27-15.95,6.66-23.5,18.02-25.17,35.79-1.96,20.83-7.42,41.3-11.04,61.99-1,5.73-4.95,12.8,1.16,17.15,12.05,8.56,24.28,17.07,37.98,23.04.27.11.89-.23,1.16-.53,10.13-11.59,26.69-18.34,28.93-35.86,3.24-25.17,5.61-50.46,8.9-80.83h0ZM1261.59,1272.19c0,30.16-.12,29.54,26.31,23.95,11.41-2.42,18.2-7.64,23.43-17.98,9.88-19.53,20.56-38.74,32.22-57.26,8.23-13.05,10.65-25.46,3.56-39.36-2.71-5.32-.93-14.69-10.81-13.58-10.42,1.18-22.61-5.41-30.14,8.9-9.99,18.98-21.26,37.33-32.79,55.42-8.49,13.34-15.2,26.69-11.8,39.92h.02Z"/>
  <path class="cls-3" d="M1038.01,674.25c-12.59-4.01-15.17-17.43-23.75-25.21-5.66-5.13-8.07-16.91-15.77-15.4-5.98,1.16-5.89,12.61-8.21,19.55-18.14,54.57-35.89,109.28-54.27,163.78-2.83,8.4-2.83,13.12,6.12,17.61,4.88,2.46,15.45,2.46,12.07,13.57-3.22,10.63-3.4,23.71-19.35,23.59-11.38-.09-14.46,6.12-15.76,16.38-3.31,26.1-7.3,52.15-11.95,78.03-1.48,8.24.41,12.66,8.14,14.78,7.53,2.07,9.76,6.39,6.68,13.73-1.34,3.2-2.21,6.71-2.63,10.17-1.18,9.47-5.73,14.14-15.7,12.3-11.15-2.07-14.83,2.9-16.5,13.96-8.9,58.98-20.4,117.58-27.63,176.85-1.32,10.72-1,16.72,12.3,15.44,10.43-1.01,18.71,13.14,14.63,23.22-1.62,4.01-5.15,3.4-7.76,2.74-15.49-3.85-21.74,3.54-22.36,17.91-.3,7.01-5.55,7.78-10.58,9.69-6.64,2.51-10.97,1.55-12.96-5.8-3.85-14.14-10.36-27.06-18.55-39.12-4.29-6.32-3.29-10.31,3.9-12.91,9.65-3.49,13.3-10.15,14.9-20.69,8.51-55.94,18.02-111.74,27.6-167.52,1.69-9.83.21-15.81-10.56-18.3-8.49-1.98-16.59-5.66-24.87-8.62-3.72-1.32-7.87-2.31-9.22-6.64-2.21-7-9.47-14.23-6.04-20.62,2.9-5.41,12.12-1.98,18.5-2.03,29.45-.25,29.27-.16,35.8-28.82,4.2-18.39,8.31-36.85,13.83-54.87,2.87-9.33.09-14.63-6.66-20.28-15.83-13.25-30.82-27.51-46.91-40.4-12.16-9.74-1.76-17.73,1.46-25.3,3.85-9.04,9.22-.12,13.8,1.25,2.44.73,4.84,2.31,6.69,4.11,17,16.42,36.34,10.49,55.65,6.23,5.52-1.21,6.5-5.16,7.73-9.4,16.63-57.79,33.1-115.65,50.08-173.34,2.74-9.31-.5-10.61-8.46-10.11-21.03,1.34-42.09,2.19-63.11,3.51-7.5.46-9.51-1.73-6.36-8.92,6.8-15.52,15.56-28.38,33.99-31.57,8.17-1.41,15.99-5.95,24.11-6.41,27.33-1.55,40.04-18.23,51.01-41.25,28.72-60.27,59.36-119.64,91.49-178.18,5.7-10.36,12.62-20.05,18.91-30.11,4.11-6.57,3.63-10.24-5.54-10.36-12.27-.16-24.52-1.62-36.78-1.91-8.96-.21-7.92-2.76-5.39-10.22,10.27-30.44,34.65-25.82,57.19-23.27,11.04,1.25,16.74-1.89,22.72-10.4,19.67-28.04,39.99-55.64,60.36-83.18,3.1-4.18,5.45-13.19,13.64-6.04,6.07,5.29,12.98,9.49,5.59,20.3-30.98,45.33-60.92,91.35-92.3,136.43-18.89,27.13-30.82,58.17-43.87,88.34-20.05,46.34-38.92,93.2-58.75,139.64-3.03,7.07-3.08,13.09-.57,20.06,3.86,10.72,6.91,21.76,10.42,32.62.94,2.9,1.41,7.07,3.51,8.33,20.03,12.05,11.93,27.76,6.16,43.26l.16-.14v-.04Z"/>
  <path class="cls-3" d="M394.54,1455.21c.5-32.74,6.32-64.65,16.97-95.48,16.34-47.29,77.54-91.83,126.1-89.27,53.89,2.83,90.27,33.2,112.08,81.22,23.93,52.68,12.32,101.87-17.13,148.7-20.31,32.31-45.15,59.8-82.61,72.07-37.51,12.28-74.17,7.62-107.82-12.12-35.54-20.85-45.03-56.35-47.57-94.57-.23-3.49-.04-7.03-.04-10.54h.02ZM618.73,1405.95c.2-48-28.88-80.17-75.79-78.94-44.14,1.16-84.23,32.08-85.42,88.86-1.01,48.85,36.78,74.65,78.59,76,49.01,1.58,82.41-34.13,82.63-85.92Z"/>
</svg>